<svg xmlns="http://www.w3.org/2000/svg" fill="none" viewBox="0 0 52 53">
  <g>
    <rect width="46.8" height="46.8" x="2.7" y="2.6" fill="#832524" rx="2.3"/>
    <rect width="46.4" height="46.4" x="2.9" y="2.8" stroke="#d1b574" stroke-width=".5" rx="2.1"/>
  </g>
  <rect width="43.6" height="43.6" x="4.3" y="4.2" stroke="#d1b36d" stroke-width=".5" rx="1.2"/>
  <rect width="43.8" height="43.8" x="4.2" y="4.1" fill="#231f20" stroke="#d1b36d" stroke-width=".5" rx="1.2"/>
  <path fill="#d1b574" stroke="#d1b574" stroke-width=".4" d="M20 23.7h10q1.6 0 2.7-.6 1-.5 1-2.3t-1-2.3-2.7-.6H20zM21.5 39h-9.2v-1.2h.2q.9 0 1.3-.2l.2-.2.1-.3V14.7l-.3-.2-1.3-.2h-.2V13h17.3q4.6 0 7.4 1.7 2.7 1.8 2.7 6t-2.7 6a14 14 0 0 1-7.4 1.8H20v8.7l.3.2 1 .2h.2z"/>
</svg>
